<svg id="レイヤー_1" data-name="レイヤー 1" xmlns="http://www.w3.org/2000/svg" viewBox="0 0 400 400"><defs><style>.cls-1{fill:#202020;}</style></defs><title>soup-icon</title><path class="cls-1" d="M11.18,102.63c-.39-.37-.68.07,0,1.28l1.1.57Z"/><path class="cls-1" d="M13.8,111.61c1,1.31,2.37,2.72,2.56,1.47-1.33-1.13-1.22-1.61-2.72-2.81-.66-1.21-.79-2.28-.44-2.19-.39-.36-.75-2-1.5-2.48a12.93,12.93,0,0,0,2.6,5.88C14.36,112,14,111.65,13.8,111.61Z"/><path class="cls-1" d="M87.6,223.61l-.54-.69A4.71,4.71,0,0,0,87.6,223.61Z"/><path class="cls-1" d="M154.55,273.34c-.58-.26-.86-.3-.92-.25C154.19,273.29,154.65,273.46,154.55,273.34Z"/><path class="cls-1" d="M167.38,279.87l-.77-.36A2,2,0,0,0,167.38,279.87Z"/><path class="cls-1" d="M87.6,223.61,89,225.4C89.26,225.34,88.31,224.44,87.6,223.61Z"/><path class="cls-1" d="M23.61,127.41a6.8,6.8,0,0,0-.73-1l.6,1Z"/><path class="cls-1" d="M62.89,196.21l-.42-.53a3.33,3.33,0,0,0-.58-.26Z"/><path class="cls-1" d="M46.22,173.3c.34.55,1,.38,1.37.43a2.79,2.79,0,0,1-1.15-.92C46.33,172.87,46.26,173,46.22,173.3Z"/><path class="cls-1" d="M24.24,134.21l-.44-.66Z"/><path class="cls-1" d="M75.74,211.92a.52.52,0,0,0,0,.35C75.8,212.21,75.79,212.08,75.74,211.92Z"/><path class="cls-1" d="M38.77,136.93s0-.07,0-.11C38.61,136.86,38.56,136.89,38.77,136.93Z"/><path class="cls-1" d="M7,128.31l.45,0a1.2,1.2,0,0,0,.17-.34Z"/><path class="cls-1" d="M192.27,288.71l-.11,0C191.46,288.58,191.85,288.66,192.27,288.71Z"/><path class="cls-1" d="M384.84,180.41c-1.47,2.37.83-4.44-1.18-.79C384,179.34,383.32,183.49,384.84,180.41Z"/><path class="cls-1" d="M23.88,128.1l.54,1A9.33,9.33,0,0,0,23.88,128.1Z"/><path class="cls-1" d="M383.66,179.62h0l-.2.38Z"/><path class="cls-1" d="M252.92,292.3a1.85,1.85,0,0,0-.65-.2C252.3,292.16,252.45,292.22,252.92,292.3Z"/><path class="cls-1" d="M207.74,290.51l1.09.25A8.09,8.09,0,0,0,207.74,290.51Z"/><path class="cls-1" d="M275.83,286.77a5.3,5.3,0,0,0,1.59-.42,1.13,1.13,0,0,0-.26,0A2.77,2.77,0,0,1,275.83,286.77Z"/><path class="cls-1" d="M298.7,278.12a4,4,0,0,0-.46.08l-.69.37Z"/><path class="cls-1" d="M111.93,145.33a3.67,3.67,0,0,1-1.07-.67C111.2,145.15,107.64,145,111.93,145.33Z"/><path class="cls-1" d="M23.3,127.59a1,1,0,0,1,.58.51l-.4-.7C23.36,127.39,23.27,127.41,23.3,127.59Z"/><path class="cls-1" d="M275.37,281.64l3.61-1C278,280.87,276.65,281.24,275.37,281.64Z"/><path class="cls-1" d="M285.56,144.72l-.87.15A2.62,2.62,0,0,0,285.56,144.72Z"/><path class="cls-1" d="M289.43,276.72a7.9,7.9,0,0,0,2.11-.42,1.51,1.51,0,0,0,.34-.32C291.06,276.22,290.26,276.51,289.43,276.72Z"/><path class="cls-1" d="M110.86,144.66Z"/><path class="cls-1" d="M85.46,143.75c3.65.39,1.81-.64,2.63-1,4.38.21,2,.82,3.39,1.4,2.75.06,4.91-.49,6.93-.25.14.16.53.25,0,.37a35.41,35.41,0,0,1,5.8.2,29.48,29.48,0,0,0,6.18,0,1.13,1.13,0,0,1,.42.25c-.51-.47-.56-.9-.42-1.2,1.64.12,3.08-.28,3.65.31a2.73,2.73,0,0,0-1.59.26l1.74-.11c1.48.92-2.37.09-2.42.67,3.37,0,7.32-.33,9.87.1.48.81-6-.22-2.65.74l-3.94-.61c2.93,1.46-2.41-.28.28,1.25,5.21.64,5.87.07,11.07.71,1.21-.34-.34-.67.86-1,7.46-.36,5.72,2.27,11.24,1.54,1.44-.43,2-1.38,5.9-.65l-1.37.8c5.06.37,2.95-1.09,8.23-.21-1,.29-4,.07-3.23.21,3.4.88,2.45-.33,5.09-.25l.52.79c5.41.05,11.37-.32,17.35-.27-.33.22-1.36.43,0,.71,1.89-.05,3.84,0,5.82,0s4,.07,6,.15c4,.16,7.95.43,11.59.68l2.79-.64c.64,0,1.2.31.5.43,2.84.28.14-.42,1.51-.67,1.61,0,2.13.36,1.11.58,5-.65,14.24-1.45,19.53-.82l-1,.22c4.12.19,4.6-1.41,8.42-1l-.72.15c4.45,0,9.14-.3,13.56-.47a110.4,110.4,0,0,1,12,.05c1.23-1.05,8.83-.13,9.32-1.51,5.12.34,3.68.67,10.87.66,1.92-.08,2.78-1.08,5.13-1.42l.11.69,3.14-1,1.78.69,2.2-.38c-.89,0-1.91-.15-1.79-.36,3.43-.62,8.47-.25,8.59.1,2.7-.45,5.41-.84,8.11-1.37-.15.3-1.51.55-2.57.84,4.28-1.19.86.65,4.79-.45-.55-.09.24-.44.32-.6a51.23,51.23,0,0,0,9.89-.85l-.59.55c3-.28,6.22-.69,9.49-1.13s6.62-1.06,10-1.51c-2.46.11-2-.8,0-1.15l.89.62c1.22-.63-2.1,0,.45-.91,2.54-.26,1.81.61.39,1l3-.68c.21.2-.49.41-.64.72,1.2-.63,5.41,0,7.12-1l.21.2c3.39-.43,5.83-.93,8.11-1.36s4.41-.85,7.16-1.31c0-.65,2.18-.86,3.73-1.63A134.59,134.59,0,0,0,374.82,133c3.35-.95.9-.72,2.36-1.38.36.53,5.19-.42,2.75.46,2.69-.54,4.47-.9,6.38-1.32l1.48-.33c.48-.11,1.19-.27,1.21-.3l1.55-.52a1,1,0,0,1,.07.37c.16-.32.28-.67.39-.89,0-.06,0-.13.2-.25h0a3.55,3.55,0,0,1-.2,1.2c-.14.37-.31.59-.45.61l0-.11a4.42,4.42,0,0,1,.09.61v.17c0,.07,0,.1,0,.26l0,.82c0,1.11-.22,2.22-.37,3.35s-.36,2.27-.57,3.41-.49,2.26-.74,3.37l-.74,3.28c-.26,1.07-.51,2.11-.71,3.12s-.37,2-.5,2.92a19.62,19.62,0,0,0-.26,2.64v-.37l-.4,3.4c-.14,1.13-.33,2.26-.5,3.39-.86,3,0-1.93-.88.23-.11.92-.23,1.79-.37,2.61s-.35,1.59-.54,2.33c-.38,1.48-.79,2.83-1.22,4.13a82.84,82.84,0,0,0-2.54,8c-1.58,1.92-3,5.79-4.64,9.83s-3.42,8.25-5.34,10.8l.53-.13c-.41,1.62-1.13,1.64-1.76,2.66.35,0,1.14-1.4.86-.4a113.88,113.88,0,0,1-11,18.12,190.57,190.57,0,0,1-13.77,16.43,7.85,7.85,0,0,0-2.16,3.73c-.33.93-.78,2-3.44,4l.76-1.84c-6.63,8.15-15.49,14.67-23.43,21.08.4-.49.28-.69,1.1-1.25a18.9,18.9,0,0,0-4,2.6c-1.39,1-2.49,2-2.38,2.22-1.37.82-.53-.14-1.47.2-2,.86-4.3,3.38-5.57,3.48-.21,0,.45-.44.76-.69-1.08.95-5.78,3.06-4.3,3-1.75.78-3.39,1.6-4.91,2.43a25.29,25.29,0,0,1-4.5,1.93,11,11,0,0,1-3.71,1.76c-1.39.49-2.6,1-2.73,1.53-.05-.53-1.71-.17-3.62.48a42.9,42.9,0,0,0-5.2,2.08c.69-.54-2.1.31-1.31-.39-2.66.74-5.05,1.57-4.46,2a17.23,17.23,0,0,0-3.78.49c-1.21.29-2.37.67-3.47,1-2.2.63-4.16,1.18-5.7.59a123.84,123.84,0,0,1-23.08,3c.14-.52,2.18-.56,4.16-.63s3.87-.26,3.68-.79c-7,.78-11.07,1.64-18,1-1.8-.24,1-.39,1.67-.54-7.05.08-13.52-1.2-19.78-1.68a4.33,4.33,0,0,1,1.36-.06c-1.23-.15-2.8-.65-2.75-.16l1.21.09c1.84,1-5.1.53-5.39.81,2.32-.87-6-1.64-2.4-2.59-.81-.08-1.86-.08-1.74.26-1.16-.36-1.49-.64-.22-.69-4.35-.83-3,.09-6.84-1,.07-.22.88-.09,1.34-.23-1-.06-2.07-.12-3.26-.3-.59-.09-1.22-.21-1.9-.38s-1.41-.42-2.21-.72c.24-.07-.09-.36.88,0-1.4-.42-2.71-.73-4-1l-3.76-.91c-1.26-.29-2.51-.66-3.82-1.1a32.68,32.68,0,0,1-4.13-1.66c2.12-.2-1.9-1.12-1.89-2-1.1-.34-2.18-.72-3.27-1.1l1.11.93c-2.76-1.22-5.47-1.72-7.69-3.11l2.18.64c-1.73-.77-3.48-1.49-5.18-2.3.9.59,1.82,1.13,2.75,1.69-3-.93-.19,1.15-3.71-.87.78.29-2.72-1.36-3.88-2.56h0a17.21,17.21,0,0,1-4.81-2.22c-.37-.53.86-.59.62-.94a14.6,14.6,0,0,1-4-1.75,18.93,18.93,0,0,0-4.22-2c.62.18.88-.19.76-.37L136,260.4c-1.1-.88-1.22-1.08-.84-1.25-3.48-2.38.55,1.64-3.41-1.48a7.1,7.1,0,0,1,1,.37c-2.06-1.44-4.1-2.75-6.12-4a55,55,0,0,1-5.69-4.12c-.58-1.5,3.38,2.23,2.55.72-1.36-1-2.77-1.89-4.2-2.83l-2.16-1.39c-.72-.48-1.41-1-2.11-1.48a91.89,91.89,0,0,1-8-6.16c.28.29.55.59.85.86-1.48.35-3.21-3.64-6-5.37.66.46,1.23.2,1,.15-3.23-3-6.81-5.92-11.92-10.3l.81.36c-1.67-2-4.65-5-6.5-7.16-.81-.39-1.89-1.59-1.54-.58a44.23,44.23,0,0,0-3.82-5.14c-1.37-1.56-2.82-3-4.25-4.42A43.12,43.12,0,0,1,68.19,198c.59.71,1.61,1.52,1.14,1-1.48-1.61-2.88-3.29-4.29-5-.1.74.27.88.79,2.23a15.32,15.32,0,0,1-3.07-3.09c2.08,2.14.65-.54.11-1.72,0,.26-.41,0-.47.21-1.34-3.29-1.22.2-3.54-3.93l.37,0a41.41,41.41,0,0,1-3.42-4c0-1,1.32,1.35,1.79,1.15-1.57-2.13-4-3.59-4.91-5.89.8.82,1.75,2.13,2.55,2.95a16.44,16.44,0,0,0-2.31-4.33l.1.17-2.25-3.91.48,1.06a11.62,11.62,0,0,1-3.62-3.82,30.82,30.82,0,0,0-3.71-4.83c3.16,3.16.86.3,1.62.21-.45-1.07-1.19-2.65-.76-2.34-1.6-1.49-1.51-3.21-3.8-5.31.12-.22-1.19-1.92-.46-1.81-1.54-2.27,0,.77-.34.7a29.77,29.77,0,0,1-3.71-6.32A42.38,42.38,0,0,0,32,143.91c-2.91-4.4-4.11-4.85-6.73-9-.45-1.63,1.35.82,1.35.82a29.46,29.46,0,0,0-3.32-6.36c.41.36.31-.18.17-1-1-1.76-1.35-.82-2.27-3.33a8.41,8.41,0,0,1,1.72,1.38c-1.3-2-2.66-3.93-3.94-6,.06-.76,1.18,1.07,1.79,1.73-1.37-2.39-3.47-6.25-4.4-6.75l.59,1.69c-.48-.89.24-.7.67-.08,1.48,1.91,1.32,3.15,1.18,3.37l-.91-1.51c-.35,2.18,3.25,6.24,4.86,9.37l-1.53-.87,2.38,2.84c.14.79-.09,1.51-1,0,.76,2.46,1.33,1.83,1.88,4,0,.25-.05.17-.19,0l1.4,2.06c-.4-.34-.4.68-1-.73,1.59,4.19,4.08,5.93,4.25,7.75l-.23-.3c3.27,5.22.89.18,3.85,3.81,0,1.19,0,2.35.08,3.54l.91.17c.3.56.9,1.66.54,1.61,1.62,1.79.06-.51,1.14.45a29.83,29.83,0,0,0,2.58,4.8c.93,1.55,1.74,2.83,1.44,3.43,1,.64-1.21-2.69.84-.13-.51,1.42,2.19,3.09,3.22,5.74-1-.39-2.12-2.81-1.09-.15.89.43,1.56,1.62,2.21,2.92a23.83,23.83,0,0,0,2,3.63c.77-.37,3.12,4.09,5.62,7.17-.37,0,4,6.32,5.89,9.48h-.17c1.1.07,3.29,3.17,5.12,5.26-.47.22-.93-.05-2-1.11l1.59,2.07a9.06,9.06,0,0,1,2.3,2.15l-.89-.13c2.15,2.73,5,5,7.49,8.67.6-.19-1-3.77,2.28-.4-.13.33-.43.82-1.31-.05a9.1,9.1,0,0,1,1.53,1.65c-.54-.36-1.07-.73-1.6-1.1,1.11,1.71,1,.54,2,1.79-.36.27.55,1.1.13,1.16-.31-.28-.8-1.18-1.35-1.53a18.54,18.54,0,0,1,2.66,4c.08-.29.45-.4,1.38.56,2.33,2.57.39,1.25,1.56,2.92.79.42,2,2.3,2.57,1.87a2.49,2.49,0,0,1,.74,1.49c1.46,1.1,5.86,6,5,4l-.28-.36.22.19h0a85.11,85.11,0,0,1,6.47,6.3,61.49,61.49,0,0,0,6.43,6.3l-.16.16c1.39,1.06,2.87,2.32,4.27,3.47a23.65,23.65,0,0,0,3.85,2.79c.8.65,1.62,1.85,1.11,1.78a28.34,28.34,0,0,1,5.32,4.25c-2.33-1.38.5.86-2.31-1.5,1.28,1.17,2,1.95,2.85,2.67a19.27,19.27,0,0,0,3.48,2.16c-1.37-.29,1.67,2.14,3.1,3l-1.71-1.78c1.54,1,2.81,2,4.11,3.06l-1.16.09a23.24,23.24,0,0,0,4.08,3.06c1.38.86,2.78,1.56,4.13,2.23,2.67,1.39,5.18,2.6,7.09,4.68,1.88.53-3.1-2.33-1.34-2,2.7,1.81,5.16,4.38,6,4.92a10.19,10.19,0,0,0,4,1.77,13.55,13.55,0,0,1,4.22,1.67c-.42-.51-.59-1.41,2.63-.07,2.88,1.51,3.14,2.75,1.17,2.07-.72-.32-1-.56-1-.62-1-.38-2.28-.91-1.25-.06l.5,0c1.34,1,5.44,2.84,4.29,2.8,2.36.82,1.15.05-.45-.86a37.57,37.57,0,0,0,4.85,2.38c1.52.67,3.08,1.27,5,2.21-.58-.4-1.05-.93-.42-.67,2.87,1.36,3.59,1.46,4.06,1.44s.75-.18,2.77.52c2.15,1.21-1.17.67,3,1.75,2.41,1.11.3.86-.78.72,3.9.83,6.93,2.62,9.08,3.38l-2.06-.4c1.23.25,2.21.55,3.22.82l-1-.84c1.15.42,2.15.7,2.07.91,1.31,0-.68-1.12,1.85-.92,1.49.74,4.87.92,5.24,1.77-4.92-1.46.38.84-3.87-.09a18.64,18.64,0,0,1,3,.75c.16.12-.2.1-.54.06,4.64,1.81,2.39-.25,7.35.85-.71.26,1,1,1.85,1.06-2-.38-.84-.84,1.07-.81,3.15.9,3.52.42,5.2.7l-1.9-.45c.71-.28,2.31,0,4.57.21.14.34-2.07-.09-1.29.17a12.1,12.1,0,0,1,4.18.61,15.81,15.81,0,0,0,4.92.76c1.6.41.09.77,1.5,1.08a15.62,15.62,0,0,1,4.14.33,14.69,14.69,0,0,0,4.29.3c-1.18-.59-1.39-.43,1.55-.91-2.28.12-4.55.06-6.83.09l4.41-.56c-2.05-.13-4.35.13-5.57-.07,2.11-.29,1.88-.19.93-.69,2.76,1,5.56-.15,8.77.42l-.12,1.35c4.92.66,8.71-.69,15.05-.84l-2.05-.06c.81-.62,3.9-.37,5.92-.81-.14.47,1.15.48,2.06.66-.07-.16,1.08-.29,2.32-.5s2.53-.58,2.74-1.07l2.9.16a17.6,17.6,0,0,0,5.27-1.55,18.31,18.31,0,0,1,5-1.76c-1.32.8.94.61-2.21,1.69,1.61-.36,3.08-.61,3-.94,1,0,4.26-1.73,5.81-1.78a5.31,5.31,0,0,1,2.46-1.42c.22,0,.06.22.06.22-.06-.22,2.65-1.14,1-1.14a30,30,0,0,0,9.12-2.64c1.6-.63,3.15-1.35,4.58-1.93a23.72,23.72,0,0,1,3.89-1.24c3.18-1.67,6.93-3.82,9.73-5.48-.12.23.1.2-.46.47a6.25,6.25,0,0,0,3-2.25,5.27,5.27,0,0,1,1-1.06,12.32,12.32,0,0,1,2.31-1.47c2.58-.8-2.06,1.79-.55,1.15.69.43,2-.45,3.48-1.58a21.39,21.39,0,0,1,4.86-3.25l-.64.55a14.76,14.76,0,0,0,3.76-2.89c1.36-1.22,2.77-2.69,4.46-4,0,0-.08.23.13.19,1.82-2.42,5.79-6.27,8.61-9.26-.53,1.29-1.15,1.5-.17,1.39,1.28-1.33-1-.3,1.5-3,1.06-.61,3.13-2.3,3.83-2.11l-2.43,2.49c1.82-.7,3.19-3.19,4.51-4.46l.1.41c3.57-4,2.92-4.66,6.69-9l-.58.28c1.28-3,2-1.72,3.49-4.55l1.28-.2,2.5-4.19c1-1.75,2.1-3.69,3.1-5.24-.65,2.08-2.86,5.84-4.21,8.2.61-.83,1.69-2.2,2.56-3.57a15.91,15.91,0,0,0,1.76-3.23,11.36,11.36,0,0,1-1.41,2.29,27.37,27.37,0,0,1,1.86-4,52.83,52.83,0,0,1,2.82-4.75c.56.79,2-1.42,3.72-4,.86-1.31,1.66-2.79,2.49-4a12.67,12.67,0,0,1,2.22-2.76c2.88-6.66,6.74-12.73,9.75-20.66-2.38,2.28.9-2.3-.63-2.32a11.06,11.06,0,0,1,1-2.7l1.4-2.65,1.31-2.7c.83-1.22-.28,1.88.07,1.8,1.44-4.07,1.12-1.54,2.36-4.15-.64.41-.25-1.65.61-4l-1.58,3.15c.95-6,2.62-4.69,3.37-10.79l0,2c.62-3.06,2.51-11.29,1.88-14.5.26-.51.76-1.17.62.2a49.55,49.55,0,0,0,.72-5.38c.09-.92.18-1.86.24-2.79s.08-1.87.12-2.79c.07-1.86.18-3.62.21-5.39.13-2.73.29-5.2.55-7.62l-1.93.24,1.22-.58c-1.23.28-2.35.65-3.43,1a15.73,15.73,0,0,1-3.55.64c0-.07.24-.2.3-.29s0-.07,0-.08a2.13,2.13,0,0,0-.41,0,24.26,24.26,0,0,1-5.28,1.38l1.45-.66c-7.11.85-10.61,3-16.49,4.21-.15-1-5.76-.42-8.56-.13l.08-.16c-8.24,1.18-13.82,3.14-21.42,4.5a63.44,63.44,0,0,0-10.86.76c-2.19.27-4.46.59-6.68.81s-4.37.37-6.3.44c1.19,0-.1.79-1.44,1-1.82,0-4.89,1.24-4.7.3l.64-.06c-1.45-.74-5.11-.09-8,.21l-.35,1.25a25.31,25.31,0,0,0-3.07-.14c-1.07,0-2.19,0-3.33.11-2.28.15-4.63.45-6.88.74-4.5.58-8.57,1.14-10.69.54-1.8.47-4.06.66-5.85,1l.05-.65c-5.06.16-7.59.24-13.82.8l1.24-.55c-3.52.19-4.34,2.15-7.59,2.39l-1-.9c-6.16.29-12.42-.33-18.47.8.09-.15.27-.43,1.26-.51-1.45,0-4.26,0-6.56.09s-4.12.26-3.58.92c-.09-.86-6.35,0-9.68.45l.51-.64a20.57,20.57,0,0,1-6.81,1.36c-.93-.06-.82-.49.42-.35-3.1-.28-2.41.65-6.17.36l1.39-.42a10.55,10.55,0,0,0-4.69.63c-2,.24-6-.21-6.52-.79a7.26,7.26,0,0,1-4.06.62c-.25-.21.44-.34.78-.41-5.32-.48-7.94.7-11.6,0-.07-.21-.31-.33-.61-.4,4.24.12,7.65.13,7.33.19,0-.59-3.41-.72-.68-1.51-1.38.21-3.24.55-5.18.8a27.33,27.33,0,0,1-5.61.11,1.72,1.72,0,0,1-.43-.21l.34-.06a9.22,9.22,0,0,0-2.11,0c-1.06-.13-1.73-.22-2.75-.26-.38-.5-3.91-.39-5.61-.47.12.65-2.11.48,0,1.07-.27,0,.32-.06,1.46-.06a7.1,7.1,0,0,0,.73,0l-.12.05,4.24.09a10.07,10.07,0,0,1-4.65.1c-.89.39-1.87.78-2.42,1-2.3-1-6.78-1.59-7.38-2.17-5.21.07-12.25-.44-15.6.58a3.14,3.14,0,0,1-2.22-.66,17.68,17.68,0,0,0,2.35-.14c-3,.13-8.77-.34-9.53.41-3.7-.67,2.14-.61-3-.88l.71-.2c-5-1.07-9.1-.86-13.37-.7-2.14.07-4.3.13-6.63,0a38.45,38.45,0,0,1-7.53-1.23,3.21,3.21,0,0,1,1.29.43c-6.31-1-12.87-1.52-19.4-2.1a170.7,170.7,0,0,1-19.17-2.87c-3.51-.69-4-.19-6.19-.12l-.67-.8-3.81.22c-5.32-.22-8.81-3.05-15.6-3l.78.59c-2.38-.4-7.57-1-7.09-1.45a2.27,2.27,0,0,1-1.74-.06v-.37l-5.94-.42c-4.47-1.05,1-1.28-5.61-2.51-2.47-.3-7.17-.2-6.29.2,1,.19,2.48.66,2.49,1l-2.28-.21c-.6,1-2.53,1.73,2.85,3.44l4,0,1.15.73L12.2,132a8,8,0,0,0,4.35.52,3.12,3.12,0,0,0,1.51.84l4-.33c.39.49-1.84.51.66,1.19,1.85-.15-1.54-1.22,1.44-1,1.76.8,1.16,1.1,3.39,1.07.25.32-.23.42-1.11.38,2,0,5.11.77,6.2.34,1.83.88,6.54.83,6.2,1.8a23.47,23.47,0,0,1,5.29,0c-3.41.7,6.63,1.08,5.59,2.23,1.28-.37,3.45-.12,5.86.14a70,70,0,0,0,7.22.56,2.65,2.65,0,0,1-1.11.06A32.7,32.7,0,0,1,66.2,141c.42-.85,4.18-.57,6.26-.86,2.83,1.23-1.91.81-1.09,1.75-.06-.74,5.19-.07,4.26-.79,2.19.81,1.91.5,3,1.38.53-1.06,2.12,0,4.07-.45,3.2.88.72,1.13,4.35,1.16C88.69,143.69,85.46,143.75,85.46,143.75Zm85.6,3.76h0l-1.77,0Zm7.19.16-3.12-.07c-.24-.23,0-.44.76-.41C175.49,147.33,177.18,147.47,178.25,147.67Zm-15.07-4.86c1.14-.06,1.52.08,1.67.22-.54,0-1.16,0-2,0a.91.91,0,0,0-.13.08A1.12,1.12,0,0,1,163.18,142.81Z"/><path class="cls-1" d="M161.12,143.58c-.17,0-.26,0-.47,0,.23.06.45.12.67.16l.41-.19Z"/><path class="cls-1" d="M87,222.8l.1.12a1.77,1.77,0,0,1-.16-.29A.58.58,0,0,1,87,222.8Z"/><polygon class="cls-1" points="277.6 145.74 277.57 145.57 276.96 145.77 277.6 145.74"/><path class="cls-1" d="M62.87,191.41a1.23,1.23,0,0,0-.19-.51A1.94,1.94,0,0,0,62.87,191.41Z"/><path class="cls-1" d="M52.93,177.58l-1.15-2.12C52.25,176.39,52.62,177.06,52.93,177.58Z"/><path class="cls-1" d="M45.92,166.53a.74.74,0,0,0-.37-.07v0Z"/><path class="cls-1" d="M207.52,286.14a4.38,4.38,0,0,0,.5,0C209.19,286.23,208.4,286.16,207.52,286.14Z"/><path class="cls-1" d="M149,267.81c.63.21,1.27.4,1.91.64C149.92,267.92,149.17,267.5,149,267.81Z"/><path class="cls-1" d="M275,281.75h0l.4-.12Z"/><path class="cls-1" d="M153.44,269.76a13.24,13.24,0,0,0-2.56-1.31A19.27,19.27,0,0,0,153.44,269.76Z"/><path class="cls-1" d="M18.45,117l-.26-.57s-.08,0-.13,0Z"/><path class="cls-1" d="M18.06,116.35l-.37-.59A1.65,1.65,0,0,0,18.06,116.35Z"/><path class="cls-1" d="M16.89,114.51l.8,1.25A3.74,3.74,0,0,0,16.89,114.51Z"/><path class="cls-1" d="M26,132.53l.3.07A.34.34,0,0,0,26,132.53Z"/><path class="cls-1" d="M28.56,137.15a44.65,44.65,0,0,0-2-4.49l-.24-.06C27,133.16,27.61,136.31,28.56,137.15Z"/><path class="cls-1" d="M37.06,157.69,35,153.78c.19.79.42,1.84-.66.13C36.51,159.11,34.18,152.64,37.06,157.69Z"/><path class="cls-1" d="M44.08,169.54c-1.38-1.94-.29.23-.47.2C44.64,170.87,44.9,171.14,44.08,169.54Z"/><path class="cls-1" d="M109.5,244.23l-.55.3C110.43,245.63,109.1,244.37,109.5,244.23Z"/><path class="cls-1" d="M126.39,253.34c-.42-.42-.82-.88-1.23-1.33l-1-.07C124.92,252.41,125.63,252.91,126.39,253.34Z"/><path class="cls-1" d="M133.46,263l-.73-.36,2.75,1.44Z"/><path class="cls-1" d="M295,280.45l-.81-.43C293.07,280.65,293.14,281.5,295,280.45Z"/><path class="cls-1" d="M351.83,235.87a7.69,7.69,0,0,0,2.76-3C353.52,234.08,352.28,235.17,351.83,235.87Z"/><path class="cls-1" d="M296.09,138.32c.47-.11.94-.25,1.41-.38-.89.17-1.79.31-2.69.46Z"/></svg>