<svg id="レイヤー_1" data-name="レイヤー 1" xmlns="http://www.w3.org/2000/svg" viewBox="0 0 800 100"><defs><style>.cls-1{font-size:98px;font-family:karakaze-M-90ms-RKSJ-H, karakazeM;}.cls-2{fill:#202020;}</style></defs><title>soup-logo</title><text class="cls-1" transform="translate(186.69 82.4)">スープのおみせ</text><path class="cls-2" d="M9.8,8.81c-.17-.16-.29,0,0,.55l.47.24Z"/><path class="cls-2" d="M10.93,12.66c.42.56,1,1.17,1.09.63-.57-.48-.52-.69-1.16-1.2-.29-.52-.34-1-.19-.94-.17-.16-.32-.86-.65-1.07a5.59,5.59,0,0,0,1.12,2.52C11.17,12.83,11,12.68,10.93,12.66Z"/><path class="cls-2" d="M42.58,60.71l-.23-.3A2.37,2.37,0,0,0,42.58,60.71Z"/><path class="cls-2" d="M71.31,82c-.25-.11-.37-.13-.4-.11C71.15,82,71.35,82.09,71.31,82Z"/><path class="cls-2" d="M76.81,84.84l-.33-.15A1,1,0,0,0,76.81,84.84Z"/><path class="cls-2" d="M42.58,60.71l.61.76C43.3,61.45,42.89,61.06,42.58,60.71Z"/><path class="cls-2" d="M15.13,18.77a2.24,2.24,0,0,0-.31-.43l.26.43Z"/><path class="cls-2" d="M32,49l-.18-.22a1.08,1.08,0,0,0-.24-.12Z"/><path class="cls-2" d="M24.83,39.12c.15.24.43.17.59.19a1.13,1.13,0,0,1-.49-.4C24.88,38.94,24.85,39,24.83,39.12Z"/><path class="cls-2" d="M15.4,22.36l-.18-.29Z"/><path class="cls-2" d="M37.5,55.69a.19.19,0,0,0,0,.15S37.52,55.76,37.5,55.69Z"/><path class="cls-2" d="M22,23.52v-.05C21.88,23.49,21.86,23.5,22,23.52Z"/><path class="cls-2" d="M8,20.13H8.2A.37.37,0,0,0,8.27,20Z"/><path class="cls-2" d="M87.49,88.4h0C87.14,88.34,87.31,88.38,87.49,88.4Z"/><path class="cls-2" d="M170.1,42.17c-.63,1,.35-1.9-.51-.33C169.74,41.72,169.45,43.5,170.1,42.17Z"/><path class="cls-2" d="M15.25,19.73l.23.43A4.5,4.5,0,0,0,15.25,19.73Z"/><path class="cls-2" d="M169.59,41.84h0l-.08.16Z"/><path class="cls-2" d="M113.51,90.17a1,1,0,0,0-.28-.08S113.3,90.14,113.51,90.17Z"/><path class="cls-2" d="M94.12,89.41l.47.1A3.56,3.56,0,0,0,94.12,89.41Z"/><path class="cls-2" d="M123.33,87.8a2.07,2.07,0,0,0,.69-.18h-.12A1.13,1.13,0,0,1,123.33,87.8Z"/><path class="cls-2" d="M133.14,84.09l-.19,0-.3.15Z"/><path class="cls-2" d="M53,27.13a1.7,1.7,0,0,1-.46-.29C52.71,27.05,51.18,27,53,27.13Z"/><path class="cls-2" d="M15,19.52a.4.4,0,0,1,.25.21l-.17-.3C15,19.43,15,19.44,15,19.52Z"/><path class="cls-2" d="M123.14,85.6l1.55-.43C124.26,85.27,123.69,85.43,123.14,85.6Z"/><path class="cls-2" d="M127.51,26.86l-.38.07A1,1,0,0,0,127.51,26.86Z"/><path class="cls-2" d="M129.17,83.49a3.42,3.42,0,0,0,.9-.18.5.5,0,0,0,.15-.14C129.87,83.28,129.52,83.4,129.17,83.49Z"/><path class="cls-2" d="M41.07,26.68c1.56.17.77-.27,1.13-.43,1.88.09.86.36,1.45.6,1.18,0,2.11-.21,3-.1.06.07.23.1,0,.16a16,16,0,0,1,2.49.08,13.14,13.14,0,0,0,2.66,0,.58.58,0,0,1,.18.11c-.22-.2-.24-.39-.18-.52.7.06,1.32-.12,1.56.14a1.07,1.07,0,0,0-.68.11l.75,0c.63.4-1,0-1,.29a32.61,32.61,0,0,1,4.24,0c.21.35-2.58-.09-1.14.32l-1.69-.26c1.26.62-1-.12.12.53,2.24.28,2.52,0,4.75.31.52-.15-.14-.29.37-.43,3.21-.15,2.46,1,4.83.66A3.43,3.43,0,0,1,66.39,28l-.59.34c2.17.16,1.27-.46,3.53-.09-.43.13-1.71,0-1.38.09,1.46.38,1-.14,2.18-.1l.23.34c2.32,0,4.88-.14,7.45-.12-.14.09-.58.18,0,.3.81,0,1.65,0,2.5,0s1.72,0,2.58.07c1.72.07,3.41.18,5,.29l1.2-.27c.27,0,.51.13.21.18,1.22.12.06-.18.65-.29s.91.16.48.25a42.42,42.42,0,0,1,8.39-.35l-.43.09c1.77.09,2-.6,3.61-.42l-.31.06c1.92,0,3.93-.13,5.83-.2a46.75,46.75,0,0,1,5.16,0c.52-.45,3.79-.06,4-.65a35,35,0,0,0,4.67.29c.82,0,1.19-.47,2.2-.61l0,.29,1.35-.43.76.3,1-.16c-.38,0-.82-.07-.77-.16a9.88,9.88,0,0,1,3.69,0c1.16-.19,2.32-.36,3.48-.58-.06.13-.64.23-1.1.36,1.84-.51.37.28,2.06-.2-.24,0,.1-.18.14-.25a22.36,22.36,0,0,0,4.24-.37l-.25.24c1.29-.12,2.67-.3,4.08-.49s2.84-.45,4.29-.64c-1.05,0-.86-.35,0-.5l.39.27c.52-.27-.91,0,.19-.39,1.09-.11.78.26.17.43l1.29-.29c.09.08-.21.17-.28.3.52-.27,2.32,0,3.06-.42l.09.08c1.46-.18,2.5-.4,3.48-.58s1.9-.37,3.08-.56c0-.28.94-.37,1.6-.7,2-.14,3.88-.37,5.81-.7,1.44-.41.38-.31,1-.59.15.23,2.23-.18,1.18.2l2.74-.57L171,21l.52-.13.66-.22a.41.41,0,0,1,0,.16c.07-.14.12-.29.17-.39s0-.05.09-.1h0a1.48,1.48,0,0,1-.09.51c-.06.16-.13.25-.19.26v-.28l1.36.26v.54A1.64,1.64,0,0,0,172.43,23c-.06.48-.15,1-.24,1.46s-.21,1-.32,1.44l-.32,1.41c-.11.46-.22.91-.3,1.34s-.16.86-.22,1.25a4.69,4.69,0,0,1-.26,1.14V30.9l0,1.45c-.06.49-.14,1-.21,1.46-.37,1.29,0-.83-.38.1,0,.39-.1.77-.16,1.12s-.15.68-.23,1c-.17.63-.34,1.21-.53,1.77-.42,1.12-.78,2.27-1.09,3.43a20.06,20.06,0,0,0-2,4.22,22.17,22.17,0,0,1-2.29,4.63l.23,0c-.18.69-.48.7-.75,1.14.15,0,.48-.6.36-.18A48.1,48.1,0,0,1,159,58.77a82.89,82.89,0,0,1-5.91,7,3.41,3.41,0,0,0-.93,1.6c-.14.4-.33.85-1.47,1.71l.32-.79c-2.84,3.5-6.64,6.3-10,9,.17-.21.12-.3.47-.54A8,8,0,0,0,139.72,78c-.6.42-1.07.85-1,1-.59.35-.23-.06-.63.08-.86.37-1.85,1.45-2.39,1.5-.09,0,.19-.19.32-.3-.46.41-2.48,1.31-1.84,1.29-.75.33-1.46.68-2.11,1a11,11,0,0,1-1.93.83,4.74,4.74,0,0,1-1.59.75c-.6.21-1.12.43-1.17.66,0-.23-.74-.07-1.56.2a18.56,18.56,0,0,0-2.23.9c.3-.23-.9.13-.56-.17-1.14.32-2.16.67-1.91.86a7.34,7.34,0,0,0-1.62.21c-.52.12-1,.29-1.49.43a4.19,4.19,0,0,1-2.45.25,53.16,53.16,0,0,1-9.9,1.29c.06-.23.94-.24,1.79-.27s1.66-.11,1.58-.34a33.55,33.55,0,0,1-7.73.43c-.77-.11.43-.17.72-.23-3,0-5.8-.52-8.49-.73a2.33,2.33,0,0,1,.59,0c-.53-.07-1.2-.28-1.18-.07l.52,0c.79.43-2.19.23-2.31.35,1-.38-2.58-.71-1-1.11-.35,0-.8,0-.75.11-.5-.16-.64-.28-.1-.3-1.86-.36-1.28,0-2.93-.43,0-.09.38,0,.58-.1a12.57,12.57,0,0,1-1.4-.13,6.94,6.94,0,0,1-.82-.16,8.64,8.64,0,0,1-1-.31c.11,0,0-.15.38,0-.6-.18-1.16-.31-1.71-.43l-1.62-.39a16.44,16.44,0,0,1-1.64-.47,14.85,14.85,0,0,1-1.77-.71c.91-.09-.81-.48-.81-.86-.47-.14-.93-.31-1.4-.47l.47.4a27.74,27.74,0,0,1-3.29-1.34l.93.28c-.74-.33-1.49-.64-2.22-1,.38.26.78.49,1.18.73-1.29-.4-.08.49-1.59-.38A13.64,13.64,0,0,1,69,79.75h0a7.17,7.17,0,0,1-2.06-1c-.16-.22.37-.25.26-.4a6.36,6.36,0,0,1-1.71-.75,8.33,8.33,0,0,0-1.81-.86c.26.08.38-.08.32-.16l-.62-.13c-.47-.38-.53-.46-.36-.54-1.5-1,.23.71-1.47-.63a2.23,2.23,0,0,1,.43.16c-.88-.62-1.76-1.18-2.62-1.72A23.7,23.7,0,0,1,56.89,72c-.25-.64,1.45,1,1.09.31-.58-.43-1.19-.81-1.8-1.21l-.93-.6c-.31-.2-.6-.43-.9-.63a38.21,38.21,0,0,1-3.43-2.65,4.21,4.21,0,0,0,.36.37c-.63.15-1.38-1.56-2.57-2.3.28.2.52.09.43.06-1.39-1.28-2.93-2.54-5.12-4.41l.35.15c-.72-.86-2-2.14-2.79-3.07-.35-.17-.81-.68-.66-.25a19.44,19.44,0,0,0-1.64-2.21c-.59-.66-1.21-1.28-1.82-1.89a18.66,18.66,0,0,1-3.2-3.94c.25.31.69.65.49.43-.64-.69-1.24-1.41-1.84-2.15,0,.32.11.38.34,1a6.6,6.6,0,0,1-1.32-1.32c.89.91.28-.24.05-.74,0,.11-.18,0-.21.09-.57-1.41-.52.08-1.51-2.28h.15c-.52,0-1-.52-1.46-1.12,0-.43.56.58.77.49-.68-.91-1.72-1.54-2.11-2.53.34.35.75.92,1.09,1.27a6.93,6.93,0,0,0-1-1.86l0,.07-1-1.67.21.45a5,5,0,0,1-1.56-1.64,13.24,13.24,0,0,0-1.59-2.07c1.36,1.36.37.13.7.09-.2-.46-.51-1.14-.33-1-.69-.64-.65-1.38-1.63-2.28.05-.1-.51-.83-.2-.78-.66-1,0,.33-.14.3a12.72,12.72,0,0,1-1.6-2.71,17.63,17.63,0,0,0-1.92-3.2c-1.25-1.89-1.76-2.08-2.88-3.86-.2-.7.58.35.58.35A13.14,13.14,0,0,0,15,20.28c.18.15.13-.08.07-.43-.43-.76-.58-.35-1-1.43a3.84,3.84,0,0,1,.74.59c-.56-.85-1.14-1.68-1.69-2.57,0-.33.5.46.77.74A13.63,13.63,0,0,0,12,14.29l.25.72c-.2-.38.1-.3.29,0,.63.82.56,1.35.5,1.44l-.39-.65c-.15.94,1.4,2.68,2.09,4l-.66-.37,1,1.22c.06.34,0,.65-.43,0,.33,1.05.58.78.81,1.72,0,.1,0,.07-.08,0l.6.88c-.17-.15-.17.29-.43-.31.68,1.79,1.75,2.54,1.82,3.32l-.09-.13c1.4,2.24.38.08,1.65,1.64,0,.51,0,1,0,1.51l.39.08c.13.24.39.71.23.69.7.77,0-.22.49.19a13.17,13.17,0,0,0,1.11,2.06c.4.67.75,1.21.62,1.47.43.28-.52-1.15.36,0-.22.61.94,1.32,1.38,2.46-.43-.17-.91-1.21-.47-.07a2.77,2.77,0,0,1,.95,1.26,10.19,10.19,0,0,0,.86,1.55c.33-.15,1.34,1.76,2.41,3.08-.16,0,2.53,4.08,2.53,4.08h-.71c.47,0,1.41,1.35,2.19,2.24-.2.09-.4,0-.85-.47l.68.88a3.69,3.69,0,0,1,1,.91l-.38-.05c.92,1.16,2.15,2.12,3.22,3.68.25-.08-.43-1.6,1-.17,0,.14-.18.35-.56,0a4,4,0,0,1,.66.7l-.69-.47c.48.73.43.23.86.77-.15.11.24.46.06.49-.14-.12-.35-.5-.58-.65a8.15,8.15,0,0,1,1.14,1.7c0-.12.19-.17.59.24,1,1.09.17.53.67,1.24.34.18.86,1,1.1.79a1.06,1.06,0,0,1,.32.64c.63.46,2.51,2.55,2.14,1.7l-.12-.16.1.08h0c1,.85,1.9,1.74,2.78,2.68a25.77,25.77,0,0,0,2.75,2.68l-.06.07c.59.45,1.23,1,1.83,1.47a10.17,10.17,0,0,0,1.65,1.19c.34.28.69.79.48.76a12.38,12.38,0,0,1,2.28,1.8c-1-.58.21.37-1-.63.55.49.85.83,1.22,1.13a7.86,7.86,0,0,0,1.49.92c-.59-.12.72.91,1.33,1.28l-.73-.76A19.11,19.11,0,0,1,57.45,74l-.5,0a10.67,10.67,0,0,0,1.76,1.3c.59.36,1.19.66,1.77.95a10.4,10.4,0,0,1,3,2c.81.22-1.33-1-.58-.85,1.16.77,2.22,1.86,2.58,2.09a4.31,4.31,0,0,0,1.71.75,5.7,5.7,0,0,1,1.82.71c-.18-.22-.26-.6,1.12,0s1.35,1.17.51.88c-.31-.14-.43-.24-.43-.26-.43-.16-1-.39-.54,0h.21c.58.43,2.34,1.21,1.85,1.19,1,.35.49,0-.2-.36a18.12,18.12,0,0,0,2.08,1c.66.28,1.32.54,2.15.94-.25-.17-.45-.4-.18-.29a4.46,4.46,0,0,0,1.74.62,2.19,2.19,0,0,1,1.19.22c.92.51-.5.28,1.29.74,1,.47.12.37-.34.31a25,25,0,0,1,3.9,1.43l-.89-.17c.53.11.95.24,1.38.35l-.42-.35c.49.17.92.29.88.38.57,0-.29-.47.8-.39.64.32,2.09.39,2.25.75-2.11-.62.16.36-1.66,0a8.23,8.23,0,0,1,1.28.31c.07,0-.08,0-.23,0,2,.77,1-.11,3.15.36-.3.11.43.43.8.45-.86-.16-.36-.36.46-.34a8.64,8.64,0,0,0,2.23.29l-.82-.19a6.72,6.72,0,0,1,2,.09c.06.15-.88,0-.55.07a5.39,5.39,0,0,1,1.79.26,6.94,6.94,0,0,0,2.11.33c.69.17,0,.32.65.46a6.2,6.2,0,0,1,1.77.14,6.39,6.39,0,0,0,1.85.12c-.51-.25-.6-.18.66-.38-1,0-1.95,0-2.93,0l1.89-.24c-.88-.06-1.86,0-2.39,0,.91-.13.81-.08.4-.3,1.19.43,2.39-.06,3.76.18l0,.58c2.11.28,3.74-.3,6.46-.36l-.88,0c.35-.26,1.67-.15,2.54-.34-.06.2.49.2.88.28,0-.07.47-.12,1-.21s1.09-.25,1.18-.46l1.24.07a7.44,7.44,0,0,0,2.26-.66,8.2,8.2,0,0,1,2.15-.75c-.57.34.4.26-1,.72.69-.15,1.32-.26,1.28-.4.43,0,1.83-.73,2.5-.75a2.2,2.2,0,0,1,1-.61c.1,0,0,.1,0,.1s1.14-.49.43-.49a12.79,12.79,0,0,0,3.91-1.12c.69-.27,1.35-.58,2-.82a10.69,10.69,0,0,1,1.66-.53c1.37-.71,3-1.62,4.18-2.33,0,.1,0,.09-.2.2a2.63,2.63,0,0,0,1.29-1,2.28,2.28,0,0,1,.43-.45,5.31,5.31,0,0,1,1-.62c1.11-.34-.88.76-.24.49.3.18.86-.19,1.5-.67a9.11,9.11,0,0,1,2.08-1.39l-.27.24a6.43,6.43,0,0,0,1.61-1.23c.58-.52,1.19-1.14,1.91-1.7,0,0,0,.1.06.08.78-1,2.48-2.67,3.69-3.94-.22.55-.49.64-.07.59.55-.56-.43-.12.64-1.27.46-.26,1.35-1,1.65-.9l-1,1.06c.78-.3,1.36-1.36,1.93-1.9l0,.18c1.53-1.7,1.26-2,2.87-3.83l-.25.12c.55-1.27.86-.73,1.5-1.93l.55-.09,1.07-1.78c.43-.74.9-1.57,1.33-2.23a23.77,23.77,0,0,1-1.8,3.49c.26-.35.72-.94,1.1-1.52a7.3,7.3,0,0,0,.75-1.37,4.88,4.88,0,0,1-.6,1,11.91,11.91,0,0,1,.79-1.7c.37-.69.78-1.37,1.21-2,.24.34.86-.6,1.6-1.7.37-.56.71-1.19,1.07-1.7a5.35,5.35,0,0,1,.95-1.17c1.24-2.83,2.89-5.42,4.18-8.79-1,1,.39-1-.27-1a5.13,5.13,0,0,1,.43-1.15l.6-1.13.57-1.15c.35-.51-.12.8,0,.77.61-1.73.48-.65,1-1.76-.28.17-.11-.71.26-1.7l-.68,1.33c.41-2.55,1.13-2,1.45-4.58v.85c.26-1.3,1.07-4.8.8-6.17.12-.21.33-.49.27.09a19.68,19.68,0,0,0,.31-2.29c0-.39.08-.79.1-1.19s0-.79,0-1.18c0-.79.08-1.54.09-2.29.06-1.16.13-2.21.24-3.24l-.83.1.53-.25c-.53.12-1,.28-1.48.43a6.46,6.46,0,0,1-1.52.27s.1-.09.13-.12,0,0,0,0h-.18a10.45,10.45,0,0,1-2.26.59L169,19c-3,.36-4.55,1.27-7.07,1.79-.07-.43-2.48-.18-3.68-.06l0-.06c-3.54.5-5.93,1.33-9.19,1.91a26.91,26.91,0,0,0-4.66.32c-.94.12-1.92.25-2.87.35s-1.87.15-2.7.18c.51,0,0,.34-.62.43-.78,0-2.1.53-2,.13l.28,0c-.62-.31-2.19,0-3.43.09l-.15.53a9.72,9.72,0,0,0-1.32-.06,14,14,0,0,0-1.43.05c-1,.06-2,.19-3,.31a15,15,0,0,1-4.59.23c-.77.2-1.74.28-2.51.43l0-.28c-2.17.07-3.25.1-5.93.34l.54-.23c-1.52.08-1.87.91-3.26,1l-.43-.38c-2.64.12-5.33-.14-7.92.34,0-.06.11-.18.54-.22-.63,0-1.83,0-2.82,0s-1.77.11-1.53.39c0-.36-2.73,0-4.16.19l.22-.27a8.82,8.82,0,0,1-2.92.58c-.4,0-.35-.21.18-.15-1.33-.12-1,.28-2.65.16l.6-.18a4.58,4.58,0,0,0-2,.26,6.06,6.06,0,0,1-2.8-.33,3.15,3.15,0,0,1-1.74.26c-.11-.09.19-.14.33-.17-2.28-.21-3.41.3-5,0,0-.09-.13-.14-.26-.17,1.82.05,3.28.05,3.15.08,0-.25-1.47-.31-.29-.64-.6.09-1.39.23-2.23.34a12,12,0,0,1-2.4,0,.66.66,0,0,1-.19-.09l.15,0a3.47,3.47,0,0,0-.91,0c-.45-.06-.74-.09-1.18-.11a8.36,8.36,0,0,0-2.4-.2c0,.27-.91.2,0,.45a3,3,0,0,1,.62,0h.32l-.06,0,1.82,0a4.32,4.32,0,0,1-2,0c-.38.17-.8.33-1,.42-1-.42-2.91-.67-3.17-.92-2.23,0-5.25-.18-6.69.25a1.35,1.35,0,0,1-1-.28,8.68,8.68,0,0,0,1-.06c-1.29.05-3.77-.15-4.09.17-1.59-.28.91-.26-1.29-.37l.3-.09a21.84,21.84,0,0,0-5.73-.29c-.92,0-1.85,0-2.85,0a16.88,16.88,0,0,1-3.23-.53,1.38,1.38,0,0,1,.56.19c-2.71-.43-5.53-.65-8.33-.9A73.37,73.37,0,0,1,29.85,23a7.49,7.49,0,0,0-2.66-.05l-.29-.34-1.63.1c-2.28-.1-3.78-1.3-6.69-1.28l.33.25c-1-.17-3.25-.42-3-.62a1,1,0,0,1-.75,0v-.17l-2.55-.18c-1.92-.45.43-.55-2.41-1.07-1.06-.13-3.08-.09-2.7.08s1.06.28,1.07.43l-1-.09c-.26.43-1.09.74,1.22,1.48h1.72l.5.31-1.4-.17a3.43,3.43,0,0,0,1.87.23,1.44,1.44,0,0,0,.65.36l1.72-.15c.17.21-.79.22.28.51.8-.06-.66-.52.62-.42.76.34.5.47,1.46.45.11.14-.1.18-.48.17a13.86,13.86,0,0,0,2.66.14c.79.38,2.81.36,2.67.78a9.58,9.58,0,0,1,2.27,0c-1.46.3,2.85.46,2.4.95a8.07,8.07,0,0,1,2.52.06,26.78,26.78,0,0,0,3.1.24,1.29,1.29,0,0,1-.48,0,14.19,14.19,0,0,1,1.94.51c.18-.36,1.8-.24,2.69-.37,1.22.53-.82.35-.47.75,0-.31,2.23,0,1.83-.33.94.34.82.21,1.29.59.23-.46.91,0,1.75-.19,1.38.37.31.48,1.87.49C42.45,26.66,41.07,26.68,41.07,26.68Zm37.32,1.64Zm3.08-.19-1.34,0c-.1-.1,0-.19.33-.18C80.29,28,81,28,81.47,28.13ZM75,25.5c.49,0,.65,0,.71.09h-.85l-.06,0A.39.39,0,0,1,75,25.5Z"/><path class="cls-2" d="M74.12,27h-.2l.29.07.18-.09Z"/><path class="cls-2" d="M42.33,60.36l0,0a.75.75,0,0,1-.07-.12Z"/><polygon class="cls-2" points="124.09 27.3 124.08 27.23 123.82 27.31 124.09 27.3"/><path class="cls-2" d="M32,46.89a.51.51,0,0,0-.09-.22A.85.85,0,0,0,32,46.89Z"/><path class="cls-2" d="M27.71,41l-.49-.91C27.42,40.45,27.58,40.74,27.71,41Z"/><path class="cls-2" d="M24.7,36.22a.37.37,0,0,0-.15,0h0Z"/><path class="cls-2" d="M94,87.53a.74.74,0,0,0,.21,0C94.75,87.57,94.41,87.54,94,87.53Z"/><path class="cls-2" d="M68.92,79.67c.28.09.55.17.82.27C69.32,79.72,69,79.54,68.92,79.67Z"/><path class="cls-2" d="M123,85.65h0l.17-.05Z"/><path class="cls-2" d="M70.83,80.5a6,6,0,0,0-1.1-.56A6.7,6.7,0,0,0,70.83,80.5Z"/><path class="cls-2" d="M12.92,14.91l-.11-.24h-.06Z"/><path class="cls-2" d="M12.75,14.69l-.16-.25A.72.72,0,0,0,12.75,14.69Z"/><path class="cls-2" d="M12.25,13.9l.34.54A1.54,1.54,0,0,0,12.25,13.9Z"/><path class="cls-2" d="M16.16,21.63l.13,0A.16.16,0,0,0,16.16,21.63Z"/><path class="cls-2" d="M17.26,23.62a19.56,19.56,0,0,0-.86-1.93l-.1,0C16.59,21.9,16.85,23.26,17.26,23.62Z"/><path class="cls-2" d="M20.9,32.43,20,30.75c.08.34.18.79-.28.06C20.67,33,19.67,30.26,20.9,32.43Z"/><path class="cls-2" d="M23.92,37.51c-.6-.83-.13.1-.21.09C24.16,38.08,24.27,38.2,23.92,37.51Z"/><path class="cls-2" d="M52,69.55l-.24.13C52.38,70.15,51.81,69.61,52,69.55Z"/><path class="cls-2" d="M59.23,73.46c-.18-.18-.36-.38-.53-.57l-.43,0C58.59,73.06,58.9,73.28,59.23,73.46Z"/><path class="cls-2" d="M62.26,77.6,62,77.45l1.17.62Z"/><path class="cls-2" d="M131.56,85.09l-.35-.18C130.73,85.18,130.76,85.54,131.56,85.09Z"/><path class="cls-2" d="M155.94,66a3.33,3.33,0,0,0,1.18-1.29C156.66,65.2,156.13,65.67,155.94,66Z"/><path class="cls-2" d="M132,24.12l.6-.16-1.15.19Z"/></svg>