<?xml version="1.0" encoding="UTF-8"?>
<svg id="b" xmlns="http://www.w3.org/2000/svg" viewBox="0 0 780.04 81.57">
  <g>
    <path d="M239.08,58.46c-1.47,.98-2.45-.2-3.14-1.27-1.47-2.35-6.96-6.86-10.09-9.02-.69-.49-1.37-.78-2.06-1.08-2.94,3.63-5.78,7.35-8.23,11.37-.78,1.27-1.96,3.43-3.04,6.37-.59,1.57-3.04,1.96-3.72,.1-.59-1.57,1.08-3.92,1.76-5.19,3.14-5.78,8.82-12.64,14.5-19.7,4.12-5.1,6.96-8.53,8.43-10.78-5.59,0-11.56,1.08-16.86,2.55-2.06,.59-4.02,1.47-5.68,2.84-2.06,1.76-4.8-1.37-2.65-2.94,1.96-1.47,4.31-2.25,6.57-2.94,5.68-1.76,17.05-3.33,20.97-2.74,1.86,.29,2.35,1.67,1.37,3.63-.69,1.37-1.96,2.94-3.14,4.51-2.55,3.43-5.39,6.86-8.13,10.19,4.02,2.35,10,7.35,12.84,10.39,.98,1.08,1.86,2.75,.29,3.72Z"/>
    <path d="M290.33,45.72c11.17-1.96,23.23-3.14,35.38-3.53,8.23-.29,11.56-.59,11.27,2.16-.29,2.55-4.21,1.47-7.45,1.37-9.02-.29-23.23,.69-33.32,2.74-1.96,.39-3.92,.88-5.88,1.27-1.08,.2-2.45,0-2.74-1.18-.29-1.27,.49-2.45,2.74-2.84Z"/>
    <path d="M404.99,29.64c.49,1.67,0,3.63-.29,5.39-.39,2.06-1.08,4.21-1.76,6.27-2.55,7.74-6.08,15.29-9.51,22.64-.69,1.47-1.76,4.71-4.21,3.23-1.57-.98-.69-2.55,0-3.82,.98-1.86,2.06-3.72,3.04-5.68,2.74-5.49,6.76-15.09,8.33-20.58,.49-1.76,1.37-4.9,1.37-5.68,0-.59-.49-.98-1.27-1.08-3.92-.49-9.41,.2-14.6,1.08-3.53,.59-6.76,1.37-9.8,2.55-1.27,.49-2.74,.39-3.23-1.08-.39-1.08,.39-2.16,1.47-2.45,7.45-2.06,15.09-2.94,21.56-3.43,3.82-.29,8.04-.49,8.92,2.65Zm15.78-2.65c1.08,.39,2.25,.59,3.14,1.18,.78,.59,1.27,1.67,.78,2.55-.59,.98-1.47,1.18-3.04,.69-3.63-1.18-8.04-3.92-10.49-7.94-2.55-4.21-2.16-9.02,1.37-12.54,2.65-2.65,6.57-4.21,10.39-3.43,5,.98,7.64,5.78,5.98,10.49-.78,2.25-2.35,4.12-4.12,5.88-.98,.98-2.55,2.74-4.02,3.14Zm5.1-13.13c-1.47-4.12-6.86-3.53-9.7-1.47-1.96,1.47-3.43,3.43-3.14,6.08,.29,2.65,2.35,5,5.39,7.06-.1-.69,.1-1.57,.78-2.16,.69-.59,1.67-1.08,3.04-2.16,2.16-1.76,4.51-4.8,3.63-7.35Z"/>
    <path d="M498.09,53.16c-.59,1.86-2.94,6.96-3.92,7.84-.88,.78-2.25,.49-2.94-.59-.49-.78,.2-2.16,.98-3.14,3.82-4.8,5.39-12.74,2.35-18.33-1.67-2.94-4.7-4.7-7.94-5-.2,.88-.49,1.76-.69,2.65-2.94,11.17-4.41,17.84-8.62,17.35-4.61-.49-5-8.04-4.61-11.56,.59-5.39,3.63-10,9.11-11.27,.78-.2,1.47-.29,2.25-.39,.39-1.18,.78-2.35,1.27-3.53,.49-1.08,1.37-1.86,2.55-1.57,1.37,.39,1.96,1.96,1.08,3.23l-1.18,1.96c3.23,.49,6.17,1.96,8.33,4.61,3.92,5,3.72,12.05,1.96,17.74Zm-15.49-16.86l.59-2.25c-.88,.2-1.67,.49-2.45,.88-3.14,1.57-4.61,5.19-4.8,8.53-.1,2.06-.2,5.68,1.67,7.15,.78,.59,3.33-7.94,5-14.31Z"/>
    <path d="M589.53,51.69c0,7.55-4.7,18.92-9.51,26.07-.39,.59-.78,1.37-1.27,1.86-.88,.88-1.86,1.18-2.74,.49-1.18-.88-1.18-1.96-.39-2.94,.39-.49,1.08-1.37,1.76-2.16,3.04-3.53,6.86-11.66,8.13-17.64,1.57-7.15,1.27-14.31-3.82-18.03-2.45-1.76-6.76-1.57-11.07,0-1.96,.69-3.82,1.76-5.59,3.04-.59,6.57-1.57,12.84-3.43,17.84-1.37,3.63-4.9,6.66-8.04,5-2.35-1.27-2.25-5.88-1.08-9.51,2.16-6.57,3.92-10.29,10.09-15.39,.39-2.74,.59-5.59,.78-8.43,.1-2.06,.39-5,.59-7.84-3.53,1.47-7.84,3.53-11.27,5.49-.69,.39-3.23,2.55-3.82,3.72-.49,.98-1.86,1.27-2.84,.69-.98-.59-1.18-1.96-.69-2.84,.29-.59,2.45-2.06,5.68-4.12,3.63-2.25,8.92-4.8,13.33-6.47,.2-1.96,.39-3.43,.49-3.92,.39-1.86,2.06-3.53,4.41-2.25,1.57,.88,4.61,2.65,7.16,4.51,.78,.59,.78,2.25-.69,2.94-.69,.29-1.67-.1-2.25-.1-1.76,0-3.63,.49-5.39,.98-.39,.1-.78,.2-1.27,.39l-.29,3.23-.49,5.78c-.2,1.96-.39,4.02-.49,6.08,5.1-3.33,11.07-4.31,16.27-2.25,5.78,2.25,7.74,9.7,7.74,15.78Zm-27.64-6.37c-1.08,1.18-2.16,2.55-3.04,4.02-2.55,4.02-6.08,12.54-3.53,13.04,2.25,.39,3.82-4.41,4.71-7.94,.78-2.94,1.37-5.98,1.86-9.12Zm5-25.78c1.27-.39,2.25-.69,3.14-.88,.29-.1,.59-.1,.88-.2-1.08-1.08-2.25-2.94-3.14-2.06-.49,.49-.69,1.86-.88,3.14Zm42.73,.49c-.39,.98-1.27,1.67-2.84,.78-2.74-1.57-6.37-9.7-6.08-13.04,.1-1.08,.88-1.86,1.86-1.86,1.08,0,1.86,.88,1.86,1.86,0,1.67,.2,3.33,1.18,5.59,.59,1.37,1.86,3.53,3.04,4.12,.98,.49,1.37,1.57,.98,2.55Z"/>
    <path d="M692.43,39.93c-.69,2.16-3.33,1.37-4.7,1.27-2.45-.2-5.39,0-8.43,.29-.59,1.37-1.08,2.74-1.57,4.02-1.67,4.61-5,15.49-5.19,18.13-.1,1.27,.1,1.67,0,2.25-.2,.98-1.18,1.86-2.25,1.76-1.27-.1-1.96-1.18-1.67-2.74,.59-3.14,4.21-15,7.06-23.03-3.33,.39-6.66,.98-9.51,1.47-4.31,.78-7.45,1.76-10.19,3.14-1.08,.49-2.16,1.08-3.23,1.67-.29,1.18-.49,2.35-.78,3.53-.59,2.55-1.08,5.49-2.65,7.55-1.18,1.57-3.63,1.96-5.1,.29-1.08-1.18-1.27-3.33-.78-5.49,.78-3.23,3.14-5.98,6.47-8.13,.29-1.18,.49-2.25,.69-2.94,1.37-5.29,2.84-10.68,4.41-14.7,.69-1.67,1.67-3.72,2.94-5.39-2.35,.49-5.98,2.06-11.17,4.9-3.43,1.86-2.74,1.67-6.47,4.51-.88,.69-2.35,.49-3.04-.69-.39-.69-.1-2.06,.98-2.94,1.67-1.37,9.02-5.19,12.15-6.47,3.82-1.57,8.72-3.43,11.17-2.45,1.67,.69,1.57,1.96-.29,4.31-2.94,3.82-5.39,11.47-7.45,19.7,5-2.35,11.37-3.82,17.84-4.8l5.29-.69c1.18-2.94,2.35-5.98,3.92-8.82,.98-1.76,2.35-2.55,3.43-1.76s1.08,2.06,.1,3.33c-.59,.78-2.06,3.63-3.63,6.96,2.84-.2,5.59-.39,7.64-.39,.88,0,2.06-.49,2.94,0,.98,.59,1.37,1.47,1.08,2.35Zm-43.71,11.17c-1.47,1.37-2.35,3.04-2.16,4.9,.1,.78,.49,.88,.78,.2,.29-.69,.78-2.74,1.37-5.1Z"/>
    <path d="M743.78,37.97c-.2,1.27-.2,2.65-.2,3.72,.1,3.04,1.08,6.27,3.43,8.13,5.59,4.41,17.54,7.16,24.79,5.59,1.37-.29,3.14-.29,3.72,.98,.59,1.27,0,2.35-2.06,2.74-8.04,1.57-24.6-1.86-29.99-8.33-2.55-3.04-3.14-7.74-2.84-11.56,0-.2,0-.39,.1-.59-4.02,.88-8.13,1.86-11.57,4.12-.88,.59-1.86,1.08-2.74,1.96-1.08,1.08-2.65,2.16-3.82,.98-.78-.79-.59-2.16,0-2.74,2.45-2.45,7.15-4.51,10.88-5.78,2.65-.88,5.39-1.57,8.13-2.06,1.08-2.94,3.23-5.68,6.37-5.68,2.06,0,3.63,2.06,4.61,3.92,3.92-.39,7.84-.78,11.76-1.08h.59c1.57-1.67,3.33-3.23,5.29-3.63,1.86-.39,6.57,.59,8.62,1.96,.59,.39,1.18,.88,1.18,1.76,0,1.96-2.84,2.06-5.49,2.06-1.96,0-3.92,.1-5.78,.2-.78,0-1.57,.1-2.45,.2-2.74,2.65-5.49,5.39-7.55,8.63-.78,1.18-1.37,2.25-1.57,3.43-.1,.49-.49,1.47-1.67,1.47-1.37,0-1.57-1.76-1.96-3.43-.49-2.16-1.08-4.21-1.76-6.27-.2-.49-.39-1.27-.69-2.16-2.45,.39-4.9,.88-7.35,1.47Zm1.08-3.43l3.82-.59c.39-.1,.78-.1,1.18-.2-.59-.88-1.27-1.57-2.16-1.47-1.37,.2-2.25,1.08-2.84,2.25Zm17.15,.59c-2.74,.29-5.49,.59-8.13,.98,.98,2.06,1.96,4.31,2.16,6.57,1.67-2.45,3.92-5.39,5.98-7.55Z"/>
  </g>
  <g>
    <path d="M2.61,.05c-.17-.16-.29,.03,0,.55l.47,.24L2.61,.05Z"/>
    <path d="M3.73,3.91c.43,.56,1.02,1.17,1.1,.63-.57-.48-.52-.69-1.17-1.21-.28-.52-.34-.98-.19-.94-.17-.15-.32-.86-.64-1.06,.15,.92,.54,1.79,1.12,2.52,.03,.22-.13,.07-.21,.06Z"/>
    <path d="M35.39,51.95l-.23-.3c.07,.11,.15,.2,.23,.3Z"/>
    <path d="M64.11,73.29c-.25-.11-.37-.13-.39-.11,.24,.09,.44,.16,.39,.11Z"/>
    <path d="M69.62,76.09l-.33-.15c.1,.07,.21,.13,.33,.15Z"/>
    <path d="M35.39,51.95l.6,.77c.11-.03-.3-.41-.6-.77Z"/>
    <path d="M7.94,10.01c-.09-.15-.2-.3-.31-.43l.26,.43h.06Z"/>
    <path d="M24.79,40.2l-.18-.23c-.08-.05-.16-.08-.25-.11l.43,.34Z"/>
    <path d="M17.64,30.37c.15,.24,.43,.16,.59,.18-.2-.08-.37-.22-.49-.39-.05,.03-.08,.08-.09,.21Z"/>
    <path d="M8.21,13.6l-.19-.28,.19,.28Z"/>
    <path d="M30.31,46.94s-.02,.1,0,.15c.03-.03,.02-.08,0-.15Z"/>
    <path d="M14.76,14.77v-.05c-.07,.02-.09,.03,0,.05Z"/>
    <path d="M.82,11.38h.19s.06-.09,.07-.15l-.27,.15Z"/>
    <path d="M80.3,79.65h-.05c-.3-.06-.13-.02,.05,0Z"/>
    <path d="M162.91,33.42c-.63,1.02,.36-1.9-.51-.34,.15-.12-.15,1.66,.51,.34Z"/>
    <path d="M8.06,10.98l.23,.43c-.07-.15-.15-.29-.23-.43Z"/>
    <path d="M162.4,33.08h0l-.09,.16,.09-.16Z"/>
    <path d="M106.31,81.42c-.09-.05-.18-.07-.28-.09,.01,.03,.08,.05,.28,.09Z"/>
    <path d="M86.93,80.65l.47,.11c-.15-.05-.31-.08-.47-.11Z"/>
    <path d="M116.14,79.05c.24-.02,.47-.08,.68-.18-.04,0-.07,0-.11,0-.17,.11-.37,.17-.57,.18Z"/>
    <path d="M125.95,75.34c-.07,0-.13,.02-.2,.03l-.3,.16,.49-.19Z"/>
    <path d="M45.83,18.37c-.17-.07-.32-.17-.46-.29,.15,.21-1.38,.15,.46,.29Z"/>
    <path d="M7.81,10.76c.11,.04,.2,.12,.25,.22l-.17-.3c-.05,0-.09,0-.08,.08Z"/>
    <path d="M115.95,76.85l1.55-.43c-.42,.1-1,.26-1.55,.43Z"/>
    <path d="M120.32,18.11l-.37,.06c.13,0,.25-.02,.37-.06Z"/>
    <path d="M121.98,74.74c.31-.02,.61-.08,.91-.18,.06-.04,.1-.08,.15-.14-.35,.1-.69,.23-1.05,.32Z"/>
    <path d="M33.87,17.93c1.57,.17,.78-.27,1.13-.43,1.88,.09,.86,.35,1.46,.6,1.18,.03,2.11-.21,2.98-.11,.06,.07,.23,.11,0,.16,.83-.04,1.66-.01,2.49,.09,.88,.09,1.77,.09,2.65,0,.07,.02,.13,.06,.18,.11-.22-.2-.24-.39-.18-.51,.7,.05,1.32-.12,1.57,.13-.23-.03-.47,0-.68,.11l.75-.05c.64,.39-1.02,.04-1.04,.29,1.45,0,3.14-.14,4.24,.04,.21,.35-2.58-.09-1.14,.32l-1.69-.26c1.26,.63-1.04-.12,.12,.54,2.24,.27,2.52,.03,4.76,.3,.52-.15-.15-.29,.37-.43,3.2-.15,2.46,.97,4.83,.66,.62-.18,.86-.59,2.53-.28l-.59,.34c2.17,.16,1.27-.47,3.54-.09-.43,.12-1.72,.03-1.39,.09,1.46,.38,1.05-.14,2.19-.11l.22,.34c2.32,.02,4.88-.14,7.45-.12-.14,.09-.58,.18,0,.3,.81-.02,1.65,0,2.5,0s1.72,.03,2.58,.06c1.72,.07,3.42,.18,4.98,.29l1.2-.27c.27,0,.52,.13,.21,.18,1.22,.12,.06-.18,.65-.29,.69,0,.92,.15,.48,.25,2.15-.28,6.12-.62,8.39-.35l-.43,.09c1.77,.08,1.98-.6,3.62-.43l-.31,.06c1.91,0,3.93-.13,5.83-.2,1.72-.09,3.44-.08,5.16,.02,.53-.45,3.79-.06,4-.65,2.2,.15,1.58,.29,4.67,.28,.82-.03,1.19-.46,2.2-.61l.05,.3,1.35-.43,.76,.3,.95-.16c-.38,0-.82-.06-.77-.15,1.47-.27,3.64-.11,3.69,.04,1.16-.19,2.32-.36,3.48-.59-.06,.13-.65,.24-1.1,.36,1.84-.51,.37,.28,2.06-.19-.24-.04,.1-.19,.14-.26,1.42,.02,2.85-.11,4.25-.36l-.25,.24c1.29-.12,2.67-.3,4.08-.48s2.84-.45,4.3-.65c-1.06,.05-.86-.34,0-.49l.38,.27c.52-.27-.9,0,.19-.39,1.09-.11,.78,.26,.17,.43l1.29-.29c.09,.09-.21,.18-.27,.31,.52-.27,2.32,0,3.06-.43l.09,.09c1.46-.18,2.5-.4,3.48-.58s1.89-.36,3.08-.56c0-.28,.94-.37,1.6-.7,1.95-.13,3.88-.37,5.8-.69,1.44-.41,.39-.31,1.01-.59,.15,.23,2.23-.18,1.18,.2,1.16-.23,1.92-.39,2.74-.57l.64-.14c.21-.05,.51-.12,.52-.13l.67-.22c.02,.05,.03,.1,.03,.16,.07-.14,.12-.29,.17-.38,0-.03,0-.06,.09-.11h0c0,.18-.03,.35-.09,.51-.06,.16-.13,.25-.19,.26v-.28l1.37,.26v.54c-.91,.48-1.01,.95-1.07,1.44s-.15,.97-.24,1.46-.21,.97-.32,1.45l-.32,1.41c-.11,.46-.22,.91-.3,1.34s-.16,.86-.21,1.25c-.06,.37-.1,.75-.26,1.13v-.16l-.02,1.46c-.06,.48-.14,.97-.21,1.45-.37,1.29,0-.83-.38,.1-.05,.39-.1,.77-.16,1.12s-.15,.68-.23,1c-.16,.63-.34,1.21-.52,1.77-.42,1.12-.78,2.27-1.09,3.43-.68,.82-1.29,2.48-1.99,4.22s-1.47,3.54-2.29,4.63l.23-.06c-.18,.69-.48,.7-.76,1.14,.15,0,.49-.6,.37-.17-1.33,2.73-2.91,5.33-4.72,7.77-1.84,2.46-3.81,4.81-5.91,7.05-.45,.44-.77,.99-.93,1.6-.14,.4-.33,.86-1.48,1.72l.33-.79c-2.84,3.5-6.65,6.29-10.05,9.04,.17-.21,.12-.3,.47-.54-.62,.3-1.19,.67-1.72,1.12-.6,.43-1.07,.86-1.02,.95-.59,.35-.23-.06-.63,.09-.86,.37-1.84,1.45-2.39,1.49-.09,0,.19-.19,.33-.3-.46,.41-2.48,1.31-1.84,1.29-.75,.33-1.45,.69-2.11,1.04-.62,.34-1.26,.62-1.93,.83-.48,.35-1.02,.61-1.59,.76-.6,.21-1.12,.43-1.17,.66-.02-.23-.73-.07-1.55,.21-.76,.25-1.51,.55-2.23,.89,.3-.23-.9,.13-.56-.17-1.14,.32-2.17,.67-1.91,.86-.55,0-1.09,.08-1.62,.21-.52,.12-1.02,.29-1.49,.43-.94,.27-1.78,.51-2.45,.25-3.25,.74-6.57,1.17-9.9,1.29,.06-.22,.94-.24,1.78-.27s1.66-.11,1.58-.34c-3,.33-4.75,.7-7.72,.43-.77-.1,.43-.17,.72-.23-3.02,.03-5.8-.51-8.49-.72,.19-.04,.39-.05,.58-.03-.53-.06-1.2-.28-1.18-.07l.52,.04c.79,.43-2.19,.23-2.31,.35,1-.37-2.57-.7-1.03-1.11-.35-.03-.8-.03-.75,.11-.5-.15-.64-.27-.09-.3-1.87-.36-1.29,.04-2.93-.43,.03-.09,.38-.04,.57-.1-.43-.03-.89-.05-1.4-.13-.25-.04-.52-.09-.82-.16s-.6-.18-.95-.31c.1-.03-.04-.15,.38,0-.6-.18-1.16-.31-1.72-.43l-1.61-.39c-.54-.12-1.08-.28-1.64-.47-.61-.2-1.2-.43-1.77-.71,.91-.09-.82-.48-.81-.86-.47-.15-.94-.31-1.4-.47l.48,.4c-1.18-.52-2.35-.74-3.3-1.33l.94,.27c-.74-.33-1.49-.64-2.22-.99,.39,.25,.78,.48,1.18,.72-1.29-.4-.08,.49-1.59-.37,.33,.12-1.17-.58-1.66-1.1h0c-.73-.21-1.43-.53-2.06-.95-.16-.23,.37-.25,.27-.4-.61-.16-1.18-.42-1.72-.75-.57-.36-1.17-.65-1.81-.86,.27,.08,.38-.08,.33-.16l-.63-.13c-.47-.38-.52-.46-.36-.54-1.49-1.02,.24,.7-1.46-.63,.15,.04,.29,.1,.43,.16-.88-.62-1.76-1.18-2.63-1.72-.85-.54-1.67-1.13-2.44-1.77-.25-.64,1.45,.96,1.09,.31-.58-.43-1.19-.81-1.8-1.21l-.93-.6c-.31-.21-.6-.43-.91-.63-1.19-.82-2.34-1.7-3.43-2.64,.12,.12,.24,.25,.36,.37-.63,.15-1.38-1.56-2.57-2.3,.28,.2,.53,.09,.43,.06-1.39-1.29-2.92-2.54-5.11-4.42l.35,.15c-.72-.86-1.99-2.14-2.79-3.07-.35-.17-.81-.68-.66-.25-.49-.77-1.04-1.51-1.64-2.21-.59-.67-1.21-1.29-1.82-1.9-1.24-1.16-2.32-2.48-3.2-3.94,.25,.3,.69,.65,.49,.43-.63-.69-1.24-1.41-1.84-2.14-.04,.32,.12,.38,.34,.96-.5-.38-.94-.82-1.32-1.33,.89,.92,.28-.23,.05-.74,0,.11-.18,0-.2,.09-.57-1.41-.52,.09-1.52-2.28h.16c-.52,.05-1.01-.52-1.47-1.12,0-.43,.57,.58,.77,.49-.67-.91-1.72-1.54-2.11-2.53,.34,.35,.75,.91,1.09,1.27-.24-.67-.57-1.29-.99-1.86l.04,.07-.97-1.68,.21,.45c-.64-.42-1.17-.98-1.55-1.64-.46-.74-.99-1.44-1.59-2.07,1.36,1.36,.37,.13,.69,.09-.19-.46-.51-1.14-.33-1-.69-.64-.65-1.38-1.63-2.28,.05-.09-.51-.82-.2-.78-.66-.97,0,.33-.15,.3-.64-.83-1.17-1.75-1.59-2.71-.53-1.13-1.17-2.21-1.92-3.2-1.25-1.89-1.76-2.08-2.89-3.86-.19-.7,.58,.35,.58,.35-.36-.96-.84-1.88-1.42-2.73,.18,.15,.13-.08,.07-.43-.43-.76-.58-.35-.97-1.43,.27,.16,.52,.36,.74,.59-.56-.86-1.14-1.69-1.69-2.57,.03-.33,.51,.46,.77,.74-.59-1.03-1.49-2.68-1.89-2.9l.25,.72c-.21-.38,.1-.3,.29-.03,.63,.82,.57,1.35,.51,1.45l-.39-.65c-.15,.94,1.39,2.68,2.08,4.02l-.66-.37,1.02,1.22c.06,.34-.04,.65-.43,0,.33,1.06,.57,.79,.81,1.72,0,.11-.02,.07-.08,0l.6,.88c-.17-.15-.17,.29-.43-.31,.68,1.8,1.75,2.54,1.82,3.32l-.1-.13c1.4,2.24,.38,.08,1.65,1.63,0,.51,0,1.01,.03,1.52l.39,.07c.13,.24,.39,.71,.23,.69,.69,.77,.03-.22,.49,.19,.31,.72,.68,1.41,1.11,2.06,.4,.66,.75,1.21,.62,1.47,.43,.27-.52-1.15,.36-.06-.22,.61,.94,1.33,1.38,2.46-.43-.17-.91-1.21-.47-.06,.38,.18,.67,.69,.95,1.25,.24,.54,.53,1.06,.86,1.56,.33-.16,1.34,1.75,2.41,3.08-.16,0,2.53,4.08,2.53,4.08h-.71c.47,.03,1.41,1.35,2.2,2.24-.2,.09-.4-.02-.86-.47l.68,.88c.38,.25,.71,.55,.99,.91l-.38-.06c.92,1.16,2.15,2.13,3.21,3.69,.26-.08-.43-1.6,.98-.17-.06,.14-.18,.35-.56-.02,.25,.21,.47,.44,.66,.7-.23-.15-.46-.31-.69-.47,.48,.73,.43,.23,.86,.76-.15,.11,.24,.47,.06,.49-.13-.12-.34-.5-.58-.65,.45,.52,.84,1.09,1.14,1.7,.03-.12,.19-.17,.59,.24,1,1.09,.17,.53,.67,1.24,.34,.18,.86,.98,1.1,.8,.18,.17,.29,.39,.32,.63,.63,.47,2.51,2.55,2.15,1.7l-.12-.15,.09,.08h0c.97,.84,1.9,1.74,2.78,2.68,.85,.96,1.77,1.85,2.76,2.68l-.07,.07c.6,.45,1.23,.99,1.83,1.48,.51,.45,1.06,.85,1.65,1.19,.34,.28,.7,.79,.48,.76,.83,.51,1.6,1.12,2.28,1.81-1-.59,.21,.37-.99-.64,.55,.5,.86,.83,1.22,1.14,.46,.36,.96,.67,1.49,.92-.59-.12,.72,.91,1.33,1.28l-.73-.76c.66,.43,1.21,.85,1.76,1.3l-.5,.04c.53,.5,1.12,.93,1.75,1.3,.59,.37,1.19,.66,1.77,.95,1.15,.59,2.22,1.11,3.04,1.99,.81,.23-1.33-.99-.57-.85,1.16,.77,2.21,1.86,2.57,2.09,.51,.37,1.1,.63,1.72,.75,.64,.13,1.25,.37,1.81,.71-.18-.22-.25-.6,1.13-.03,1.24,.64,1.35,1.17,.5,.88-.31-.14-.43-.24-.43-.26-.43-.16-.98-.39-.54-.03h.21c.57,.43,2.33,1.21,1.84,1.19,1.01,.35,.49,.02-.19-.37,.67,.39,1.36,.72,2.08,1.01,.65,.28,1.32,.54,2.15,.94-.25-.17-.45-.4-.18-.28,1.23,.58,1.54,.62,1.74,.61s.32-.08,1.19,.22c.92,.51-.5,.28,1.29,.74,1.03,.47,.13,.37-.33,.31,1.67,.35,2.97,1.11,3.9,1.44l-.88-.17c.53,.11,.95,.23,1.38,.35l-.43-.36c.49,.18,.92,.3,.89,.39,.56,0-.29-.48,.79-.39,.64,.31,2.09,.39,2.25,.75-2.11-.62,.16,.36-1.66-.04,.44,.07,.87,.18,1.29,.32,.07,.05-.09,.04-.23,.03,1.99,.77,1.03-.11,3.15,.36-.3,.11,.43,.43,.79,.45-.86-.16-.36-.36,.46-.34,1.35,.38,1.51,.18,2.23,.3l-.82-.19c.3-.12,.99,0,1.96,.09,.06,.14-.89-.04-.55,.07,.61-.02,1.22,.07,1.79,.26,.68,.22,1.39,.33,2.11,.32,.69,.17,.04,.33,.64,.46,.6-.03,1.19,.02,1.78,.14,.6,.13,1.22,.17,1.84,.13-.51-.25-.6-.18,.67-.39-.98,.05-1.95,.03-2.93,.04l1.89-.24c-.88-.06-1.87,.06-2.39-.03,.91-.12,.81-.08,.4-.29,1.18,.43,2.39-.06,3.76,.18l-.05,.57c2.11,.28,3.74-.29,6.46-.36l-.88-.03c.35-.26,1.67-.16,2.54-.34-.06,.2,.49,.2,.88,.28-.03-.07,.46-.12,1-.21s1.09-.25,1.18-.45l1.24,.07c.78-.1,1.55-.32,2.26-.66,.67-.35,1.4-.6,2.15-.75-.57,.34,.4,.26-.95,.72,.69-.15,1.32-.26,1.29-.4,.43,0,1.83-.74,2.49-.76,.29-.29,.65-.5,1.06-.6,.09,0,.03,.09,.03,.09-.03-.09,1.14-.48,.43-.48,1.36-.17,2.68-.54,3.91-1.12,.69-.27,1.35-.57,1.97-.82,.54-.22,1.1-.4,1.67-.53,1.36-.71,2.97-1.62,4.17-2.33-.05,.1,.04,.09-.2,.2,.52-.18,.97-.51,1.29-.96,.12-.17,.27-.32,.43-.45,.31-.24,.64-.45,.99-.62,1.11-.34-.88,.76-.24,.49,.3,.18,.86-.19,1.49-.67,.63-.55,1.33-1.02,2.09-1.38l-.27,.23c.6-.32,1.15-.74,1.61-1.23,.58-.52,1.19-1.14,1.91-1.7,0,0-.03,.1,.06,.08,.78-1.03,2.48-2.67,3.69-3.94-.23,.55-.49,.64-.07,.59,.55-.57-.43-.13,.64-1.28,.45-.26,1.34-.98,1.64-.9l-1.04,1.06c.78-.3,1.37-1.36,1.94-1.9l.04,.17c1.53-1.7,1.25-1.98,2.87-3.83l-.25,.12c.55-1.28,.86-.73,1.5-1.93l.55-.09,1.07-1.78c.43-.74,.9-1.57,1.33-2.23-.28,.88-1.23,2.48-1.81,3.49,.26-.35,.73-.94,1.1-1.52,.3-.43,.56-.89,.76-1.37-.16,.35-.37,.67-.6,.97,.22-.59,.49-1.16,.8-1.7,.37-.69,.77-1.37,1.21-2.02,.24,.34,.86-.6,1.6-1.7,.37-.56,.71-1.19,1.07-1.7,.26-.43,.58-.83,.95-1.17,1.24-2.83,2.89-5.41,4.18-8.78-1.02,.97,.39-.98-.27-.99,.09-.4,.24-.79,.43-1.15l.6-1.13,.56-1.15c.36-.52-.12,.8,.03,.77,.62-1.73,.48-.65,1.01-1.76-.27,.17-.11-.7,.26-1.7l-.68,1.34c.41-2.55,1.12-1.99,1.45-4.59v.85c.27-1.3,1.08-4.8,.81-6.16,.11-.22,.33-.5,.27,.09,.15-.76,.25-1.52,.31-2.29,.04-.39,.08-.79,.1-1.19s.03-.8,.05-1.19c.03-.79,.08-1.54,.09-2.29,.06-1.16,.12-2.21,.24-3.24l-.83,.1,.52-.25c-.53,.12-1.01,.28-1.47,.43-.5,.15-1.01,.24-1.52,.27,0-.03,.1-.09,.13-.12s0-.03,0-.03c-.06,0-.12,0-.18,0-.73,.28-1.49,.48-2.27,.59l.62-.28c-3.05,.36-4.55,1.28-7.08,1.79-.06-.43-2.47-.18-3.67-.06l.03-.07c-3.54,.5-5.93,1.33-9.19,1.91-1.56-.02-3.12,.08-4.66,.32-.94,.11-1.91,.25-2.87,.34s-1.87,.16-2.7,.19c.51,0-.04,.34-.62,.43-.78,0-2.1,.53-2.02,.13l.27-.03c-.62-.31-2.19-.04-3.43,.09l-.15,.53c-.44-.05-.88-.07-1.32-.06-.46,0-.94,0-1.43,.05-.98,.06-1.99,.19-2.95,.31-1.93,.25-3.68,.48-4.59,.23-.77,.2-1.74,.28-2.51,.43l.02-.28c-2.17,.07-3.26,.1-5.93,.34l.53-.23c-1.51,.08-1.86,.91-3.26,1.02l-.43-.38c-2.64,.12-5.33-.14-7.92,.34,.04-.06,.12-.18,.54-.22-.62,0-1.83,0-2.81,.04s-1.77,.11-1.54,.39c-.04-.37-2.72,0-4.15,.19l.22-.27c-.93,.36-1.92,.55-2.92,.58-.4-.03-.35-.21,.18-.15-1.33-.12-1.03,.28-2.65,.15l.6-.18c-.68-.06-1.37,.03-2.01,.27-.86,.1-2.57-.09-2.8-.34-.54,.25-1.15,.34-1.74,.26-.11-.09,.19-.14,.33-.17-2.28-.2-3.41,.3-4.98,0-.03-.09-.13-.14-.26-.17,1.82,.05,3.28,.06,3.14,.08,0-.25-1.46-.31-.29-.64-.59,.09-1.39,.23-2.22,.34-.8,.1-1.61,.11-2.41,.05-.07-.02-.13-.05-.18-.09l.15-.03c-.3-.03-.6-.03-.91,0-.45-.06-.74-.09-1.18-.11-.16-.21-1.68-.17-2.41-.2,.05,.28-.91,.2,0,.45-.12,0,.14-.03,.63-.03,.1,0,.21,0,.31,0l-.05,.02,1.82,.04c-.65,.17-1.34,.18-2,.04-.38,.17-.8,.33-1.04,.43-.99-.43-2.91-.68-3.17-.92-2.24,.03-5.26-.19-6.69,.25-.34,.03-.68-.07-.95-.28,.34,0,.67-.02,1.01-.06-1.29,.06-3.76-.14-4.09,.17-1.59-.28,.92-.26-1.29-.37l.3-.09c-2.15-.45-3.9-.37-5.74-.3-.92,.03-1.84,.06-2.84,0-1.09-.07-2.17-.24-3.23-.52,.2,.02,.38,.08,.55,.18-2.71-.43-5.52-.65-8.32-.89-2.76-.25-5.51-.66-8.22-1.22-1.51-.29-1.72-.08-2.66-.05l-.29-.34-1.63,.09c-2.28-.09-3.78-1.3-6.69-1.28l.33,.25c-1.02-.17-3.25-.43-3.04-.62-.24,.09-.51,.08-.75-.03v-.17l-2.55-.18c-1.92-.45,.43-.55-2.41-1.08-1.06-.13-3.08-.09-2.7,.09,.43,.08,1.07,.28,1.07,.43l-.98-.09c-.26,.43-1.09,.74,1.22,1.48h1.72l.49,.31-1.39-.17c.59,.25,1.24,.32,1.87,.22,.18,.18,.4,.3,.65,.36l1.72-.14c.17,.21-.79,.22,.28,.51,.79-.06-.66-.52,.62-.43,.76,.34,.5,.47,1.46,.46,.11,.14-.1,.18-.48,.16,.86,0,2.2,.33,2.66,.15,.79,.38,2.81,.36,2.66,.77,.76-.09,1.52-.09,2.27,0-1.46,.3,2.85,.46,2.4,.96,.55-.16,1.48-.05,2.52,.06,1.03,.13,2.06,.21,3.1,.24-.16,.04-.32,.05-.48,.03,.66,.13,1.3,.3,1.94,.51,.18-.36,1.8-.24,2.69-.37,1.22,.53-.82,.35-.47,.75-.03-.32,2.23-.03,1.83-.34,.94,.35,.82,.21,1.29,.59,.23-.45,.91,0,1.75-.19,1.37,.38,.31,.48,1.87,.5,.7,.21-.68,.24-.68,.24Zm37.32,1.64h0Zm3.08-.19l-1.34-.03c-.1-.1,0-.19,.33-.18-.17,.06,.55,.12,1.01,.21Zm-6.46-2.63c.49-.03,.65,.03,.72,.09h-.86s-.04,.02-.06,.03c.05-.06,.12-.1,.2-.13Z"/>
    <path d="M66.93,18.2h-.2c.1,.03,.19,.05,.29,.07l.18-.08h-.26Z"/>
    <path d="M35.14,51.61l.04,.05s-.05-.08-.07-.12c.01,.02,.02,.05,.03,.07Z"/>
    <polygon points="116.9 18.55 116.89 18.48 116.63 18.56 116.9 18.55"/>
    <path d="M24.78,38.14c-.01-.08-.04-.15-.08-.22,.02,.08,.04,.15,.08,.22Z"/>
    <path d="M20.52,32.21l-.49-.91c.2,.4,.36,.69,.49,.91Z"/>
    <path d="M17.51,27.47s-.1-.03-.16-.03h0l.16,.03Z"/>
    <path d="M86.84,78.78c.07,0,.14,0,.21,0,.5,.04,.16,0-.21,0Z"/>
    <path d="M61.73,70.92c.27,.09,.54,.17,.82,.27-.42-.23-.75-.41-.82-.27Z"/>
    <path d="M115.79,76.9h0l.17-.05-.17,.05Z"/>
    <path d="M63.64,71.75c-.34-.23-.71-.42-1.1-.56,.35,.21,.72,.4,1.1,.56Z"/>
    <path d="M5.73,6.16l-.11-.24h-.06l.17,.24Z"/>
    <path d="M5.56,5.94l-.16-.25c.03,.09,.09,.18,.16,.25Z"/>
    <path d="M5.06,5.15l.34,.54c-.08-.2-.19-.38-.34-.54Z"/>
    <path d="M8.97,12.88l.13,.03s-.08-.04-.13-.03Z"/>
    <path d="M10.07,14.86c-.25-.66-.54-1.3-.86-1.93l-.1-.03c.29,.24,.55,1.59,.96,1.95Z"/>
    <path d="M13.71,23.67l-.88-1.68c.08,.34,.18,.79-.28,.06,.93,2.23-.07-.54,1.17,1.62Z"/>
    <path d="M16.72,28.76c-.59-.83-.12,.1-.2,.09,.44,.48,.55,.6,.2-.09Z"/>
    <path d="M44.79,60.8l-.24,.13c.63,.47,.06-.07,.24-.13Z"/>
    <path d="M52.03,64.71c-.18-.18-.35-.38-.53-.57l-.43-.03c.33,.2,.63,.42,.96,.6Z"/>
    <path d="M55.07,68.85l-.31-.15,1.18,.62-.87-.46Z"/>
    <path d="M124.37,76.34l-.35-.18c-.48,.27-.45,.63,.35,.18Z"/>
    <path d="M148.75,57.21c.5-.31,.91-.76,1.18-1.29-.46,.52-.99,.99-1.18,1.29Z"/>
    <path d="M124.83,15.37c.2-.05,.4-.11,.6-.16-.38,.07-.77,.13-1.15,.2l.55-.03Z"/>
  </g>
</svg>