<svg id="レイヤー_1" data-name="レイヤー 1" xmlns="http://www.w3.org/2000/svg" viewBox="0 0 392.53 386.6"><defs><style>.cls-1{fill:#35432c;}.cls-2{font-size:85.63px;fill:#fff;font-family:HigureGothic-Regular, Higure Gothic;letter-spacing:0.2em;}</style></defs><title>soup-limited-icon</title><path class="cls-1" d="M3.36,200c0-25.9,16-48.44,25.31-71,9.68-23.35,17.21-48,34.8-65.57S104.58,35.67,127.93,26C150.45,16.65,174.1,3.5,200,3.5s48.84,14.88,71.36,24.22c23.34,9.68,44.76,21,62.35,38.57s36.53,35.84,46.21,59.18c9.34,22.52,16,48.63,16,74.53s-6.31,52.14-15.65,74.66c-9.68,23.34-26.45,43.94-44,61.54S293.63,360,270.29,369.71c-22.52,9.33-44.39,20.4-70.29,20.4s-51.73-1.52-74.25-10.86c-23.34-9.68-46.36-23.46-63.95-41.05s-28.76-41.69-38.44-65C14,250.64,3.36,225.9,3.36,200Z" transform="translate(-3.36 -3.5)"/><text class="cls-2" transform="translate(93.89 164.5)">期間<tspan x="0" y="120.85">限定</tspan></text></svg>